<svg width="113" height="57" viewBox="0 0 113 57" fill="none" xmlns="http://www.w3.org/2000/svg">
<path d="M19.5788 26.6869C20.2978 26.1571 20.9477 25.5157 21.5284 24.7628C22.1092 23.982 22.5931 23.5916 22.9802 23.5916C23.3951 23.5916 23.6025 24.2051 23.6025 25.4321C23.6025 26.6312 23.2568 27.7745 22.5654 28.8621C21.9018 29.9217 21.0168 30.8141 19.9107 31.5391C17.6431 33.045 14.9607 33.7979 11.8634 33.7979C8.10254 33.7979 5.18507 32.8498 3.11104 30.9535C1.03701 29.0573 0 26.422 0 23.0478C0 18.8928 0.995534 14.9469 2.9866 11.2102C3.65029 9.9832 4.39694 8.85382 5.22655 7.82203C4.59052 7.06911 4.07892 6.2883 3.69177 5.47961C3.33227 4.64302 3.15252 4.01559 3.15252 3.5973C3.15252 2.84437 3.42906 2.46791 3.98214 2.46791C4.36929 2.4958 4.81175 2.76072 5.30952 3.26267L6.59541 4.51754C6.92726 4.85217 7.27293 5.13103 7.63243 5.35412C10.3701 3.01169 13.3153 1.84048 16.4678 1.84048C19.648 1.84048 21.7082 2.73283 22.6484 4.51754C22.9802 5.1868 23.1462 6.00944 23.1462 6.98545C23.1462 8.46341 22.5101 9.70434 21.2381 10.7082C19.966 11.7121 18.2515 12.2141 16.0945 12.2141C13.9651 12.2141 11.7528 11.7679 9.45757 10.8756C7.49416 14.2498 6.51245 17.7774 6.51245 21.4583C6.51245 26.5615 8.53117 29.113 12.5686 29.113C15.0575 29.113 17.3942 28.3043 19.5788 26.6869ZM11.4486 8.28215C12.859 8.75622 14.3938 8.99325 16.053 8.99325C17.7122 8.99325 18.5418 8.53313 18.5418 7.61289C18.5418 6.52533 17.8643 5.98156 16.5093 5.98156C14.6565 5.98156 12.9696 6.74842 11.4486 8.28215Z" fill="#324054"/>
<path d="M26.499 33.5887C23.7336 33.5887 22.3509 30.9814 22.3509 25.7667C22.3509 22.9223 22.6966 20.3429 23.3879 18.0283C24.4664 14.4589 25.6832 12.6742 27.0382 12.6742C27.8402 12.6742 28.4762 13.218 28.9463 14.3055C29.3335 15.1421 29.5132 15.9648 29.4856 16.7735C29.4856 17.8889 29.1537 19.8549 28.49 22.6714C27.854 25.1253 27.536 26.6451 27.536 27.2307C27.536 27.8163 27.6742 28.2207 27.9508 28.4438C28.255 28.6669 28.6007 28.7784 28.9878 28.7784C29.4026 28.7784 29.9142 28.5135 30.5226 27.9836C31.131 27.4538 31.7393 26.8821 32.3477 26.2687C32.9561 25.6273 33.5092 25.0417 34.007 24.5118C34.5324 23.982 34.8919 23.7171 35.0854 23.7171C35.4726 23.7171 35.6662 24.1911 35.6662 25.1393C35.6662 27.0913 34.6845 29.0015 32.7211 30.8699C30.7853 32.7103 28.7113 33.6166 26.499 33.5887ZM28.1997 9.28605C27.453 8.17061 27.0797 6.97151 27.0797 5.68875C27.0797 4.40599 27.2733 3.34632 27.6604 2.50974C28.0752 1.64528 28.4624 1.01784 28.8219 0.627435C29.1814 0.209145 29.5962 0 30.0663 0C30.8406 0 31.5458 0.585607 32.1818 1.75682C32.8178 2.90015 33.1359 3.86222 33.1359 4.64303C33.1359 6.0931 32.6243 7.23643 31.6011 8.07301C30.6055 8.8817 29.4717 9.28605 28.1997 9.28605Z" fill="#324054"/>
<path d="M49.4799 14.431C49.867 13.204 50.4892 12.5905 51.3465 12.5905C52.1208 12.6184 52.8536 13.1762 53.545 14.2637C54.2363 15.3234 54.582 16.146 54.582 16.7316C54.5267 17.875 54.181 19.7015 53.545 22.2112C52.9089 24.6931 52.0102 27.9279 50.8487 31.9156C52.6739 30.4934 54.4714 28.639 56.2412 26.3523C56.8496 25.5715 57.3612 24.9441 57.776 24.47C58.2184 23.9681 58.5779 23.7171 58.8545 23.7171C59.2416 23.7171 59.4352 24.1633 59.4352 25.0556C59.4352 26.8124 58.4535 28.8621 56.4901 31.2045C54.5543 33.5469 52.1761 35.3734 49.3554 36.6841C49.0236 37.7995 48.6641 38.8592 48.2769 39.8631C47.8898 40.867 47.392 41.7454 46.7836 42.4983C45.4562 44.1157 43.4375 44.9244 40.7275 44.9244C38.9023 44.9244 37.3399 44.3946 36.0401 43.3349C34.7681 42.2752 34.132 40.9507 34.132 39.3612C34.132 38.4967 34.4086 37.8135 34.9617 37.3115C35.5424 36.8096 36.3305 36.4052 37.326 36.0985C38.3216 35.7917 39.483 35.5268 40.8104 35.3037C42.1654 35.0806 43.6034 34.8018 45.1244 34.4672C45.2627 33.9931 45.3733 33.533 45.4562 33.0868C45.5669 32.6127 45.6775 32.1387 45.7881 31.6646C44.2671 33.0868 42.4005 33.7979 40.1882 33.7979C38.0036 33.7979 36.3167 33.1844 35.1276 31.9574C33.9385 30.7304 33.3577 29.2385 33.3854 27.4817C33.3854 22.7411 34.9478 19.0043 38.0727 16.2715C40.2297 14.4031 42.4696 13.469 44.7926 13.469C45.5945 13.469 46.4518 13.5666 47.3643 13.7618C48.3046 13.957 49.0097 14.1801 49.4799 14.431ZM39.483 26.1013C39.483 28.2486 40.2712 29.3222 41.8474 29.3222C42.7323 29.3222 43.6311 28.9875 44.5437 28.3183C45.4562 27.649 46.1891 26.5615 46.7421 25.0556C47.1569 23.1036 47.5856 21.3049 48.028 19.6597C48.4982 18.0144 48.8162 16.8711 48.9821 16.2297C46.6592 16.5364 44.4884 17.5822 42.4696 19.3669C40.4786 21.1516 39.483 23.3964 39.483 26.1013ZM43.8385 38.3154C42.843 38.5106 41.9719 38.664 41.2252 38.7755C40.4786 38.8871 39.8564 38.9847 39.3586 39.0684C38.8885 39.152 38.529 39.2496 38.2801 39.3612C38.0589 39.4727 37.9483 39.654 37.9483 39.9049C37.9483 40.4069 38.2524 40.8391 38.8608 41.2016C39.4969 41.5641 40.1191 41.7315 40.7275 41.7036C41.7783 41.7036 42.8153 40.5742 43.8385 38.3154Z" fill="#324054"/>
<path d="M82.8403 23.5916C83.3381 23.5916 83.587 24.233 83.587 25.5157C83.587 26.2129 83.2966 27.0634 82.7159 28.0673C82.1351 29.0433 81.3746 29.9496 80.4344 30.7862C79.5219 31.5949 78.4987 32.2642 77.3649 32.794C76.2311 33.3238 75.1249 33.5887 74.0464 33.5887C72.5808 33.5887 71.5991 32.292 71.1013 29.6986C70.3823 30.8977 69.4421 31.8877 68.2806 32.6685C67.1192 33.4214 65.5567 33.7979 63.5933 33.7979C61.6576 33.7979 60.0951 33.1844 58.906 31.9574C57.7169 30.7304 57.1362 29.2385 57.1638 27.4817C57.1638 22.7411 58.7262 19.0043 61.8511 16.2715C63.1785 15.1282 64.4091 14.3753 65.5429 14.0127C66.7044 13.6502 67.9211 13.469 69.1932 13.469C70.4653 13.469 71.5023 13.692 72.3042 14.1382C72.6914 13.3295 73.1338 12.9252 73.6316 12.9252C74.5995 12.9252 75.5121 13.3574 76.3693 14.2219C77.2542 15.0585 77.6967 15.8532 77.6967 16.6061C77.3096 17.5264 76.7427 18.6279 75.996 19.9106C75.7748 21.1934 75.6642 22.992 75.6642 25.3066C75.6642 27.6211 75.9545 28.7784 76.5352 28.7784C77.2542 28.7784 78.9964 27.3283 81.7618 24.4282C82.2596 23.8705 82.6191 23.5916 82.8403 23.5916ZM63.2615 26.1013C63.2615 28.2486 64.0496 29.3222 65.6258 29.3222C67.3127 29.2943 68.7092 28.388 69.8154 26.6033C70.2025 25.9898 70.5206 25.2369 70.7694 24.3445C70.7694 21.2213 71.046 18.5442 71.5991 16.3133C69.3591 16.7595 67.4095 17.8471 65.7503 19.576C64.0911 21.3049 63.2615 23.4801 63.2615 26.1013Z" fill="#324054"/>
<path d="M87.5704 26.436L87.8193 31.5391C87.8193 32.2084 87.4736 32.8079 86.7823 33.3378C86.0909 33.8676 85.1507 34.1325 83.9616 34.1325C83.2702 34.1325 82.7863 33.77 82.5098 33.045C82.2609 32.3199 82.1364 31.2603 82.1364 29.866C82.1364 26.9379 82.2747 24.6513 82.5512 23.006C82.8554 21.3328 83.4362 19.6457 84.2934 17.9447C83.0213 16.7177 82.3853 15.658 82.3853 14.7657C82.3853 12.8973 83.3808 11.9631 85.3719 11.9631C86.3951 11.9631 87.2938 12.5069 88.0681 13.5944C88.6212 14.3474 89.0222 15.2258 89.2711 16.2297C89.6582 16.3691 90.1422 16.4388 90.7229 16.4388C91.5249 16.4388 92.4513 16.1739 93.5021 15.6441L94.5806 15.1003C94.9124 14.933 95.2028 14.8493 95.4517 14.8493C96.2536 14.8493 97.0556 16.0345 97.8576 18.4048C97.6087 19.4923 97.3321 20.5381 97.028 21.542C96.7514 22.5459 96.4196 23.7589 96.0324 25.1811C95.6453 26.6033 95.4379 27.5654 95.4102 28.0673C95.4102 28.5414 95.5623 28.7784 95.8665 28.7784C96.2813 28.7784 96.7929 28.5135 97.4013 27.9836C98.0097 27.4538 98.618 26.8821 99.2264 26.2687C99.8348 25.6273 100.388 25.0417 100.886 24.5118C101.411 23.982 101.771 23.7171 101.964 23.7171C102.351 23.7171 102.545 24.1911 102.545 25.1393C102.545 27.0634 101.701 28.9597 100.015 30.828C98.3553 32.6964 96.4472 33.6166 94.2902 33.5887C93.0182 33.5887 92.0641 33.0728 91.4281 32.0411C90.792 31.0093 90.4602 29.7544 90.4325 28.2764C90.4325 25.3484 91.0824 22.5738 92.3821 19.9525C91.7738 20.2034 91.0824 20.3289 90.3081 20.3289C89.5615 20.3289 89.0222 20.301 88.6904 20.2453C88.4415 21.3049 88.1926 22.3785 87.9437 23.4661C87.6948 24.5258 87.5704 25.5157 87.5704 26.436Z" fill="#324054"/>
<path d="M58.2443 41.3534C58.0665 41.4995 57.8805 41.6374 57.6865 41.7673C57.4924 41.8972 57.2661 41.9621 57.0074 41.9621C56.7648 41.9621 56.6436 41.743 56.6436 41.3047C56.6436 40.4118 57.0559 39.6813 57.8805 39.1131C58.6728 38.5287 59.6268 38.2365 60.7425 38.2365C61.8582 38.2365 62.6747 38.6342 63.1921 39.4296C63.6126 40.0628 63.8228 40.9232 63.8228 42.0108C63.8228 42.4816 63.7338 43.0904 63.556 43.8371C62.6343 47.7008 62.1654 50.3793 62.1492 51.8729C62.1654 52.5871 62.4645 53.0742 63.0466 53.3339C63.273 53.4313 63.5398 53.48 63.847 53.48C65.2861 53.48 66.6443 52.6277 67.9217 50.9232C67.2749 48.6504 66.9515 46.0693 66.9515 43.1797C66.9515 42.1082 67.2022 41.2397 67.7034 40.5741C68.2208 39.8923 69.0535 39.5514 70.2016 39.5514C71.0585 39.5514 71.7053 39.7949 72.1419 40.2819C72.5946 40.7689 72.821 41.4102 72.821 42.2056C72.821 43.8452 72.3925 45.8663 71.5355 48.2689C71.2445 49.0806 70.9049 49.8842 70.5169 50.6797C71.2122 52.5628 72.1338 53.5043 73.2818 53.5043C74.5754 53.5043 75.7072 52.6277 76.6774 50.8745C77.3889 49.592 77.971 47.8469 78.4237 45.6391C77.2433 45.4767 76.3055 44.9735 75.6102 44.1293C74.9311 43.2852 74.5916 42.3842 74.5916 41.4264C74.5916 40.4686 74.8907 39.6732 75.489 39.04C76.0872 38.4069 76.9038 38.0904 77.9386 38.0904C78.9735 38.0741 79.7496 38.4394 80.267 39.1861C80.7844 39.9167 81.0431 40.915 81.0431 42.1813V42.6683C81.0431 42.8469 81.035 43.0417 81.0189 43.2527C81.2938 43.1228 81.5282 42.993 81.7222 42.8631C81.9163 42.717 82.1103 42.6439 82.3043 42.6439C82.6277 42.6439 82.7894 42.7819 82.7894 43.0579C82.7894 43.5936 82.6116 44.0644 82.2558 44.4702C81.9163 44.8761 81.4555 45.1845 80.8734 45.3956C80.6632 47.2949 80.3802 48.7884 80.0245 49.8761C79.3615 51.9703 78.4884 53.5612 77.405 54.6488C76.1115 55.9151 74.5188 56.5563 72.627 56.5725C71.0585 56.5725 69.7812 55.5255 68.7948 53.4313C67.1456 55.5255 65.2699 56.5725 63.1679 56.5725C61.7288 56.5725 60.5808 56.2154 59.7238 55.5011C58.883 54.7706 58.4626 53.6261 58.4626 52.0677C58.4626 51.6943 58.6647 50.7121 59.069 49.1212C59.4894 47.5141 59.8208 46.1991 60.0634 45.1764C60.3059 44.1374 60.4272 43.3176 60.4272 42.717C60.4272 41.4021 60.0957 40.7446 59.4328 40.7446C59.2064 40.7446 58.9962 40.8095 58.8022 40.9394C58.6243 41.0693 58.4384 41.2072 58.2443 41.3534ZM70.0075 41.5969C69.5871 41.5969 69.3769 42.2543 69.3769 43.5693C69.3769 44.8842 69.4901 46.2073 69.7165 47.5384C70.3309 45.9313 70.6381 44.3728 70.6381 42.8631C70.6381 42.5384 70.5816 42.2462 70.4684 41.9865C70.3713 41.7267 70.2177 41.5969 70.0075 41.5969ZM78.2054 40.2089C77.8659 40.2089 77.6961 40.4767 77.6961 41.0124C77.6961 41.9865 78.0761 42.6926 78.836 43.131C78.9007 42.5141 78.933 42.1001 78.933 41.8891C78.933 41.4345 78.8764 41.0693 78.7633 40.7933C78.6339 40.4037 78.448 40.2089 78.2054 40.2089Z" fill="#324054"/>
<path d="M87.9633 53.8453C89.2245 53.8453 90.4453 53.342 91.6257 52.3355C92.0622 51.9621 92.418 51.6212 92.6928 51.3128C92.9677 50.9881 93.1779 50.8258 93.3235 50.8258C93.5498 50.8258 93.663 51.053 93.663 51.5076C93.663 51.9621 93.5417 52.4735 93.2992 53.0417C93.0567 53.5936 92.6524 54.1375 92.0865 54.6732C90.6959 55.9881 88.7879 56.6456 86.3625 56.6456C84.4384 56.6456 83.1287 55.9475 82.4334 54.5514C82.1908 54.0644 82.0696 53.3664 82.0696 52.4573C82.0696 51.5482 82.2474 50.6066 82.6032 49.6326C82.9589 48.6423 83.4278 47.7901 84.0099 47.0758C84.6082 46.3615 85.2954 45.8095 86.0715 45.4199C86.8476 45.0141 87.6723 44.8112 88.5454 44.8112C89.4347 44.8112 90.1138 45.0303 90.5827 45.4686C91.0678 45.9069 91.3104 46.4751 91.3104 47.1732C91.3104 47.8712 91.1325 48.4475 90.7768 48.9021C90.4372 49.3404 89.9926 49.7138 89.4428 50.0222C88.893 50.3144 88.2786 50.5823 87.5995 50.8258C86.9366 51.053 86.2817 51.3128 85.6349 51.605V52.2138C85.6511 52.7982 85.8936 53.2121 86.3625 53.4556C86.8315 53.6992 87.365 53.829 87.9633 53.8453ZM87.551 46.9784C86.7102 46.9784 86.1281 47.9605 85.8047 49.9248C86.1443 49.6975 86.4596 49.4946 86.7506 49.316C87.0578 49.1375 87.3246 48.967 87.551 48.8047C88.0361 48.4475 88.2867 48.0417 88.3029 47.5871C88.3029 47.1813 88.0522 46.9784 87.551 46.9784Z" fill="#324054"/>
<path d="M97.8582 56.5725C95.546 56.5888 93.9695 55.7203 93.1287 53.967C92.8376 53.3501 92.6921 52.579 92.6921 51.6537C92.6921 50.7121 92.7729 49.7138 92.9346 48.6586C93.258 46.5482 93.8805 44.6001 94.8022 42.8144C95.2711 41.9053 95.7966 41.1261 96.3787 40.4767C97.6561 39.0482 99.079 38.342 100.647 38.3582C101.343 38.3582 101.884 38.553 102.272 38.9426C102.677 39.316 102.879 39.8598 102.879 40.5741C102.879 41.2884 102.669 42.0108 102.248 42.7413C101.828 43.4556 101.286 44.2024 100.623 44.9816C99.9764 45.7446 99.2569 46.5482 98.4646 47.3923C97.6723 48.2365 96.8961 49.1537 96.1362 50.144V51.118C96.1362 52.0271 96.3302 52.6927 96.7183 53.1147C97.1063 53.5368 97.5591 53.7479 98.0765 53.7479C99.4671 53.7479 100.696 53.0579 101.763 51.678C102.2 51.1099 102.531 50.8258 102.758 50.8258C102.984 50.8258 103.097 51.1017 103.097 51.6537C103.097 52.2056 102.943 52.7738 102.636 53.3582C102.345 53.9264 101.957 54.454 101.472 54.941C100.987 55.4118 100.429 55.8014 99.7985 56.1099C99.1679 56.4183 98.5211 56.5725 97.8582 56.5725ZM99.1679 43.4962C99.5075 43.0741 99.7743 42.6926 99.9683 42.3517C100.162 42.0108 100.259 41.6618 100.259 41.3047C100.259 40.9313 100.13 40.7446 99.8713 40.7446C99.3054 40.7446 98.6748 41.329 97.9795 42.4978C97.3004 43.6667 96.791 45.2008 96.4515 47.1001C97.0012 46.256 97.5025 45.5498 97.9552 44.9816C98.4241 44.4134 98.8284 43.9183 99.1679 43.4962Z" fill="#324054"/>
<path d="M107.072 56.5725C104.76 56.5888 103.183 55.7203 102.342 53.967C102.051 53.3501 101.906 52.579 101.906 51.6537C101.906 50.7121 101.987 49.7138 102.148 48.6586C102.472 46.5482 103.094 44.6001 104.016 42.8144C104.485 41.9053 105.01 41.1261 105.592 40.4767C106.87 39.0482 108.293 38.342 109.861 38.3582C110.556 38.3582 111.098 38.553 111.486 38.9426C111.89 39.316 112.092 39.8598 112.092 40.5741C112.092 41.2884 111.882 42.0108 111.462 42.7413C111.041 43.4556 110.5 44.2024 109.837 44.9816C109.19 45.7446 108.471 46.5482 107.678 47.3923C106.886 48.2365 106.11 49.1537 105.35 50.144V51.118C105.35 52.0271 105.544 52.6927 105.932 53.1147C106.32 53.5368 106.773 53.7479 107.29 53.7479C108.681 53.7479 109.91 53.0579 110.977 51.678C111.413 51.1099 111.745 50.8258 111.971 50.8258C112.198 50.8258 112.311 51.1017 112.311 51.6537C112.311 52.2056 112.157 52.7738 111.85 53.3582C111.559 53.9264 111.171 54.454 110.686 54.941C110.201 55.4118 109.643 55.8014 109.012 56.1099C108.382 56.4183 107.735 56.5725 107.072 56.5725ZM108.382 43.4962C108.721 43.0741 108.988 42.6926 109.182 42.3517C109.376 42.0108 109.473 41.6618 109.473 41.3047C109.473 40.9313 109.344 40.7446 109.085 40.7446C108.519 40.7446 107.888 41.329 107.193 42.4978C106.514 43.6667 106.005 45.2008 105.665 47.1001C106.215 46.256 106.716 45.5498 107.169 44.9816C107.638 44.4134 108.042 43.9183 108.382 43.4962Z" fill="#324054"/>
</svg>
